<?xml version="1.0" encoding="UTF-8"?>
<svg id="_Слой_2" data-name="Слой 2" xmlns="http://www.w3.org/2000/svg" viewBox="0 0 920.41 47.51">
  <defs>
    <style>
      .cls-1 {
        fill: #1269C7;
      }
    </style>
  </defs>
  <g id="OBJECTS">
    <g>
      <g>
        <g>
          <polygon class="cls-1" points="35.62 41.58 0 41.58 0 5.93 35.65 5.93 35.65 35.93 5.65 35.93 5.65 11.58 30 11.58 30 30.07 11.51 30.07 11.51 17.44 24.14 17.44 24.14 23.75 21.14 23.75 21.14 20.44 14.51 20.44 14.51 27.07 27 27.07 27 14.58 8.65 14.58 8.65 32.93 32.65 32.93 32.65 8.93 3 8.93 3 38.58 35.62 38.58 35.62 41.58"/>
          <polygon class="cls-1" points="41.48 46.01 38.48 46.01 38.48 5.93 74.13 5.93 74.13 41.58 44.13 41.58 44.13 11.58 68.48 11.58 68.48 35.93 49.99 35.93 49.99 17.44 62.62 17.44 62.62 30.07 56.3 30.07 56.3 27.07 59.62 27.07 59.62 20.44 52.99 20.44 52.99 32.93 65.48 32.93 65.48 14.58 47.13 14.58 47.13 38.58 71.13 38.58 71.13 8.93 41.48 8.93 41.48 46.01"/>
        </g>
        <g>
          <polygon class="cls-1" points="151.09 41.58 115.44 41.58 115.44 11.58 145.44 11.58 145.44 35.93 121.09 35.93 121.09 17.44 139.58 17.44 139.58 30.07 126.95 30.07 126.95 23.75 129.95 23.75 129.95 27.07 136.58 27.07 136.58 20.44 124.09 20.44 124.09 32.93 142.44 32.93 142.44 14.58 118.44 14.58 118.44 38.58 148.09 38.58 148.09 8.93 115.47 8.93 115.47 5.93 151.09 5.93 151.09 41.58"/>
          <polygon class="cls-1" points="112.61 41.58 76.96 41.58 76.96 5.93 106.96 5.93 106.96 35.93 82.61 35.93 82.61 11.58 101.1 11.58 101.1 30.07 88.47 30.07 88.47 17.44 94.78 17.44 94.78 20.44 91.47 20.44 91.47 27.07 98.1 27.07 98.1 14.58 85.61 14.58 85.61 32.93 103.96 32.93 103.96 8.93 79.96 8.93 79.96 38.58 109.61 38.58 109.61 1.51 112.61 1.51 112.61 41.58"/>
        </g>
        <g>
          <polygon class="cls-1" points="189.53 41.58 153.92 41.58 153.92 5.93 189.57 5.93 189.57 35.93 159.57 35.93 159.57 11.58 183.92 11.58 183.92 30.07 165.43 30.07 165.43 17.44 178.06 17.44 178.06 23.75 175.06 23.75 175.06 20.44 168.43 20.44 168.43 27.07 180.92 27.07 180.92 14.58 162.57 14.58 162.57 32.93 186.57 32.93 186.57 8.93 156.92 8.93 156.92 38.58 189.53 38.58 189.53 41.58"/>
          <polygon class="cls-1" points="195.4 46.01 192.4 46.01 192.4 5.93 228.05 5.93 228.05 41.58 198.05 41.58 198.05 11.58 222.4 11.58 222.4 35.93 203.91 35.93 203.91 17.44 216.54 17.44 216.54 30.07 210.22 30.07 210.22 27.07 213.54 27.07 213.54 20.44 206.91 20.44 206.91 32.93 219.4 32.93 219.4 14.58 201.05 14.58 201.05 38.58 225.05 38.58 225.05 8.93 195.4 8.93 195.4 46.01"/>
        </g>
        <g>
          <polygon class="cls-1" points="305.01 41.58 269.36 41.58 269.36 11.58 299.35 11.58 299.35 35.93 275.01 35.93 275.01 17.44 293.5 17.44 293.5 30.07 280.86 30.07 280.86 23.75 283.86 23.75 283.86 27.07 290.5 27.07 290.5 20.44 278.01 20.44 278.01 32.93 296.35 32.93 296.35 14.58 272.36 14.58 272.36 38.58 302.01 38.58 302.01 8.93 269.39 8.93 269.39 5.93 305.01 5.93 305.01 41.58"/>
          <polygon class="cls-1" points="266.53 41.58 230.88 41.58 230.88 5.93 260.88 5.93 260.88 35.93 236.53 35.93 236.53 11.58 255.02 11.58 255.02 30.07 242.38 30.07 242.38 17.44 248.7 17.44 248.7 20.44 245.38 20.44 245.38 27.07 252.02 27.07 252.02 14.58 239.53 14.58 239.53 32.93 257.88 32.93 257.88 8.93 233.88 8.93 233.88 38.58 263.53 38.58 263.53 1.51 266.53 1.51 266.53 41.58"/>
        </g>
        <g>
          <polygon class="cls-1" points="343.45 41.58 307.83 41.58 307.83 5.93 343.49 5.93 343.49 35.93 313.49 35.93 313.49 11.58 337.83 11.58 337.83 30.07 319.34 30.07 319.34 17.44 331.98 17.44 331.98 23.75 328.98 23.75 328.98 20.44 322.34 20.44 322.34 27.07 334.83 27.07 334.83 14.58 316.49 14.58 316.49 32.93 340.49 32.93 340.49 8.93 310.83 8.93 310.83 38.58 343.45 38.58 343.45 41.58"/>
          <polygon class="cls-1" points="349.31 46.01 346.31 46.01 346.31 5.93 381.96 5.93 381.96 41.58 351.97 41.58 351.97 11.58 376.31 11.58 376.31 35.93 357.82 35.93 357.82 17.44 370.46 17.44 370.46 30.07 364.14 30.07 364.14 27.07 367.46 27.07 367.46 20.44 360.82 20.44 360.82 32.93 373.31 32.93 373.31 14.58 354.97 14.58 354.97 38.58 378.96 38.58 378.96 8.93 349.31 8.93 349.31 46.01"/>
        </g>
        <g>
          <polygon class="cls-1" points="458.92 41.58 423.27 41.58 423.27 11.58 453.27 11.58 453.27 35.93 428.92 35.93 428.92 17.44 447.41 17.44 447.41 30.07 434.78 30.07 434.78 23.75 437.78 23.75 437.78 27.07 444.41 27.07 444.41 20.44 431.92 20.44 431.92 32.93 450.27 32.93 450.27 14.58 426.27 14.58 426.27 38.58 455.92 38.58 455.92 8.93 423.31 8.93 423.31 5.93 458.92 5.93 458.92 41.58"/>
          <polygon class="cls-1" points="420.44 41.58 384.79 41.58 384.79 5.93 414.79 5.93 414.79 35.93 390.45 35.93 390.45 11.58 408.94 11.58 408.94 30.07 396.3 30.07 396.3 17.44 402.62 17.44 402.62 20.44 399.3 20.44 399.3 27.07 405.94 27.07 405.94 14.58 393.45 14.58 393.45 32.93 411.79 32.93 411.79 8.93 387.79 8.93 387.79 38.58 417.44 38.58 417.44 1.51 420.44 1.51 420.44 41.58"/>
        </g>
      </g>
      <rect class="cls-1" x=".11" y="0" width="458.71" height="3"/>
      <rect class="cls-1" x=".11" y="44.51" width="458.71" height="3"/>
    </g>
    <g>
      <g>
        <g>
          <polygon class="cls-1" points="497.11 41.57 461.49 41.57 461.49 5.92 497.14 5.92 497.14 35.92 467.14 35.92 467.14 11.57 491.49 11.57 491.49 30.06 473 30.06 473 17.43 485.63 17.43 485.63 23.75 482.63 23.75 482.63 20.43 476 20.43 476 27.06 488.49 27.06 488.49 14.57 470.14 14.57 470.14 32.92 494.14 32.92 494.14 8.92 464.49 8.92 464.49 38.57 497.11 38.57 497.11 41.57"/>
          <polygon class="cls-1" points="502.97 46.01 499.97 46.01 499.97 5.92 535.62 5.92 535.62 41.57 505.62 41.57 505.62 11.57 529.97 11.57 529.97 35.92 511.48 35.92 511.48 17.43 524.11 17.43 524.11 30.06 517.79 30.06 517.79 27.06 521.11 27.06 521.11 20.43 514.48 20.43 514.48 32.92 526.97 32.92 526.97 14.57 508.62 14.57 508.62 38.57 532.62 38.57 532.62 8.92 502.97 8.92 502.97 46.01"/>
        </g>
        <g>
          <polygon class="cls-1" points="612.58 41.57 576.93 41.57 576.93 11.57 606.93 11.57 606.93 35.92 582.58 35.92 582.58 17.43 601.07 17.43 601.07 30.06 588.44 30.06 588.44 23.75 591.44 23.75 591.44 27.06 598.07 27.06 598.07 20.43 585.58 20.43 585.58 32.92 603.93 32.92 603.93 14.57 579.93 14.57 579.93 38.57 609.58 38.57 609.58 8.92 576.96 8.92 576.96 5.92 612.58 5.92 612.58 41.57"/>
          <polygon class="cls-1" points="574.1 41.57 538.45 41.57 538.45 5.92 568.45 5.92 568.45 35.92 544.1 35.92 544.1 11.57 562.59 11.57 562.59 30.06 549.96 30.06 549.96 17.43 556.27 17.43 556.27 20.43 552.96 20.43 552.96 27.06 559.59 27.06 559.59 14.57 547.1 14.57 547.1 32.92 565.45 32.92 565.45 8.92 541.45 8.92 541.45 38.57 571.1 38.57 571.1 1.5 574.1 1.5 574.1 41.57"/>
        </g>
        <g>
          <polygon class="cls-1" points="651.02 41.57 615.41 41.57 615.41 5.92 651.06 5.92 651.06 35.92 621.06 35.92 621.06 11.57 645.41 11.57 645.41 30.06 626.92 30.06 626.92 17.43 639.55 17.43 639.55 23.75 636.55 23.75 636.55 20.43 629.92 20.43 629.92 27.06 642.41 27.06 642.41 14.57 624.06 14.57 624.06 32.92 648.06 32.92 648.06 8.92 618.41 8.92 618.41 38.57 651.02 38.57 651.02 41.57"/>
          <polygon class="cls-1" points="656.89 46.01 653.89 46.01 653.89 5.92 689.54 5.92 689.54 41.57 659.54 41.57 659.54 11.57 683.89 11.57 683.89 35.92 665.4 35.92 665.4 17.43 678.03 17.43 678.03 30.06 671.71 30.06 671.71 27.06 675.03 27.06 675.03 20.43 668.4 20.43 668.4 32.92 680.89 32.92 680.89 14.57 662.54 14.57 662.54 38.57 686.54 38.57 686.54 8.92 656.89 8.92 656.89 46.01"/>
        </g>
        <g>
          <polygon class="cls-1" points="766.5 41.57 730.85 41.57 730.85 11.57 760.84 11.57 760.84 35.92 736.5 35.92 736.5 17.43 754.99 17.43 754.99 30.06 742.35 30.06 742.35 23.75 745.35 23.75 745.35 27.06 751.99 27.06 751.99 20.43 739.5 20.43 739.5 32.92 757.84 32.92 757.84 14.57 733.85 14.57 733.85 38.57 763.5 38.57 763.5 8.92 730.88 8.92 730.88 5.92 766.5 5.92 766.5 41.57"/>
          <polygon class="cls-1" points="728.02 41.57 692.37 41.57 692.37 5.92 722.36 5.92 722.36 35.92 698.02 35.92 698.02 11.57 716.51 11.57 716.51 30.06 703.87 30.06 703.87 17.43 710.19 17.43 710.19 20.43 706.87 20.43 706.87 27.06 713.51 27.06 713.51 14.57 701.02 14.57 701.02 32.92 719.36 32.92 719.36 8.92 695.37 8.92 695.37 38.57 725.02 38.57 725.02 1.5 728.02 1.5 728.02 41.57"/>
        </g>
        <g>
          <polygon class="cls-1" points="804.94 41.57 769.32 41.57 769.32 5.92 804.98 5.92 804.98 35.92 774.98 35.92 774.98 11.57 799.32 11.57 799.32 30.06 780.83 30.06 780.83 17.43 793.47 17.43 793.47 23.75 790.47 23.75 790.47 20.43 783.83 20.43 783.83 27.06 796.32 27.06 796.32 14.57 777.98 14.57 777.98 32.92 801.98 32.92 801.98 8.92 772.32 8.92 772.32 38.57 804.94 38.57 804.94 41.57"/>
          <polygon class="cls-1" points="810.8 46.01 807.8 46.01 807.8 5.92 843.45 5.92 843.45 41.57 813.46 41.57 813.46 11.57 837.8 11.57 837.8 35.92 819.31 35.92 819.31 17.43 831.95 17.43 831.95 30.06 825.63 30.06 825.63 27.06 828.95 27.06 828.95 20.43 822.31 20.43 822.31 32.92 834.8 32.92 834.8 14.57 816.46 14.57 816.46 38.57 840.45 38.57 840.45 8.92 810.8 8.92 810.8 46.01"/>
        </g>
        <g>
          <polygon class="cls-1" points="920.41 41.57 884.76 41.57 884.76 11.57 914.76 11.57 914.76 35.92 890.41 35.92 890.41 17.43 908.9 17.43 908.9 30.06 896.27 30.06 896.27 23.75 899.27 23.75 899.27 27.06 905.9 27.06 905.9 20.43 893.41 20.43 893.41 32.92 911.76 32.92 911.76 14.57 887.76 14.57 887.76 38.57 917.41 38.57 917.41 8.92 884.8 8.92 884.8 5.92 920.41 5.92 920.41 41.57"/>
          <polygon class="cls-1" points="881.93 41.57 846.28 41.57 846.28 5.92 876.28 5.92 876.28 35.92 851.94 35.92 851.94 11.57 870.43 11.57 870.43 30.06 857.79 30.06 857.79 17.43 864.11 17.43 864.11 20.43 860.79 20.43 860.79 27.06 867.43 27.06 867.43 14.57 854.94 14.57 854.94 32.92 873.28 32.92 873.28 8.92 849.28 8.92 849.28 38.57 878.93 38.57 878.93 1.5 881.93 1.5 881.93 41.57"/>
        </g>
      </g>
      <rect class="cls-1" x="461.6" width="458.71" height="3"/>
      <rect class="cls-1" x="461.6" y="44.51" width="458.71" height="3"/>
      <rect class="cls-1" x="238.02" y="44.51" width="458.71" height="3"/>
      <rect class="cls-1" x="231.13" width="458.71" height="3"/>
    </g>
  </g>
</svg>